<svg xmlns="http://www.w3.org/2000/svg" width="96mm" height="56mm" viewBox="0 0 960 560"><title>HuGR — cartão, back</title><desc>Formato de corte 90 x 50 mm, sangria 3 mm. Preencher dados antes da produção.</desc><rect width="960" height="560" fill="#FFFFFF"/><svg xmlns="http://www.w3.org/2000/svg" width="246" height="64" viewBox="0 0 696 182" role="img" aria-labelledby="hugr-title hugr-desc" x="75" y="70"><title id="hugr-title">HuGR — Human Guardrail</title><desc id="hugr-desc">HuGR — Human Guardrail. Composição wordmark; variante primary. Símbolo, letras e assinatura em curvas.</desc><defs><linearGradient id="type-dark" gradientUnits="userSpaceOnUse" x1="296.977" y1="812.222" x2="576.978" y2="937.558"><stop offset="0.0000" stop-color="#0e1927" /><stop offset="0.2500" stop-color="#0d1927" /><stop offset="0.5000" stop-color="#0d1826" /><stop offset="0.7500" stop-color="#0c1724" /><stop offset="1.0000" stop-color="#0d1825" /></linearGradient><linearGradient id="type-blue" gradientUnits="userSpaceOnUse" x1="786.237" y1="797.827" x2="786.050" y2="932.144"><stop offset="0.0000" stop-color="#0173fc" /><stop offset="0.2500" stop-color="#016bfe" /><stop offset="0.5000" stop-color="#015cf2" /><stop offset="0.7500" stop-color="#004ddd" /><stop offset="1.0000" stop-color="#0140c4" /></linearGradient></defs><g transform="translate(20 20) scale(1) translate(-299.5 -795)"><path d="M299.5,795H332V850H420.5V795H452.5V936H420.5V878.5H332V936H299.5Z M469,834H501V886C501,902 509,908.5 526,908.5H543C560,908.5 568,901 568,886V834H599V889C599,920 581,936 550,936H519C486,936 469,920 469,889Z" fill="url(#type-dark)" fill-rule="evenodd" /><path d="M684,795H772V823H684C659,823 648,839 648,865C648,891 659,907 684,907H742V878.5H697L707.5,850H775.5V936H683C640,936 615,909 615,865C615,823 641,795 684,795Z M793,795H902C935,795 955,813 955,840C955,866 941,883 913,888.5L955,936H916L876,889H825V936H793Z M825,823V860H902C916,860 922,853 922,841C922,829 915,823 902,823Z" fill="url(#type-blue)" fill-rule="evenodd" /></g></svg><text x="80" y="244" font-family="Inter,Arial,sans-serif" font-size="38" font-weight="600" fill="#0B1423">[Nome completo]</text><text x="80" y="290" font-family="Inter,Arial,sans-serif" font-size="24" fill="#52647B">[Cargo / função]</text><text x="80" y="389" font-family="Inter,Arial,sans-serif" font-size="24" fill="#0B1423">[E-mail]</text><text x="80" y="432" font-family="Inter,Arial,sans-serif" font-size="24" fill="#0B1423">[Site / telefone]</text><rect x="80" y="480" width="72" height="4" fill="#1266F6"/></svg>